<?xml version="1.0" encoding="UTF-8" standalone="no"?>
<!-- Created with Inkscape (http://www.inkscape.org/) -->

<svg
   xmlns:dc="http://purl.org/dc/elements/1.1/"
   xmlns:cc="http://creativecommons.org/ns#"
   xmlns:rdf="http://www.w3.org/1999/02/22-rdf-syntax-ns#"
   xmlns:svg="http://www.w3.org/2000/svg"
   xmlns="http://www.w3.org/2000/svg"
   xmlns:sodipodi="http://sodipodi.sourceforge.net/DTD/sodipodi-0.dtd"
   xmlns:inkscape="http://www.inkscape.org/namespaces/inkscape"
   width="128.89842mm"
   height="129.57654mm"
   viewBox="0 0 128.89842 129.57654"
   version="1.1"
   id="svg8"
   inkscape:version="0.92.3 (2405546, 2018-03-11)"
   sodipodi:docname="logo-white.svg">
  <defs
     id="defs2" />
  <sodipodi:namedview
     id="base"
     pagecolor="#ffffff"
     bordercolor="#666666"
     borderopacity="1.0"
     inkscape:pageopacity="0.0"
     inkscape:pageshadow="2"
     inkscape:zoom="0.98994949"
     inkscape:cx="42.187259"
     inkscape:cy="222.17236"
     inkscape:document-units="mm"
     inkscape:current-layer="layer1"
     showgrid="false"
     fit-margin-top="0"
     fit-margin-left="0"
     fit-margin-right="0"
     fit-margin-bottom="0"
     inkscape:window-width="1440"
     inkscape:window-height="824"
     inkscape:window-x="0"
     inkscape:window-y="0"
     inkscape:window-maximized="1" />
  <metadata
     id="metadata5">
    <rdf:RDF>
      <cc:Work
         rdf:about="">
        <dc:format>image/svg+xml</dc:format>
        <dc:type
           rdf:resource="http://purl.org/dc/dcmitype/StillImage" />
        <dc:title></dc:title>
      </cc:Work>
    </rdf:RDF>
  </metadata>
  <g
     inkscape:label="Layer 1"
     inkscape:groupmode="layer"
     id="layer1"
     transform="translate(-41.800833,-76.485538)">
    <path
       style="fill:#ffffff;stroke:#feffff;stroke-width:4.02519703;stroke-miterlimit:4;stroke-dasharray:none;stroke-dashoffset:0;stroke-opacity:1"
       d="M 402.85742,291.0918 A 242.85714,242.85714 0 0 0 160,533.94727 242.85714,242.85714 0 0 0 402.85742,776.80469 242.85714,242.85714 0 0 0 642.59961,570.77148 c -59.5647,3.88746 -42.70063,46.5573 -116.52539,36.16797 -7.62126,27.47195 2.16509,40.55548 -10.61328,62.45313 -12.77837,21.89765 -44.90785,26.5987 -67.76563,13.23828 -22.85779,-13.36041 -32.62809,-42.67419 -39.30469,-54.49219 -65.18296,21.24951 -145.59756,7.89826 -154.1289,-17.4707 -8.53134,-25.36896 15.00408,-41.51381 29.13086,-59.2793 -28.89593,-28.26926 -38.72497,-67.16782 -25.23633,-99.87305 13.1635,-31.77624 46.112,-52.20661 85.26953,-52.87304 16.41076,-0.27987 33.10046,2.9439 48.70703,9.4082 36.55351,15.17346 62.98729,46.30464 68.74805,80.96484 9.45529,-36.95701 23.51098,-74.49614 64.83398,-83.63867 41.323,-9.14253 58.50672,20.2189 70.6211,56.93946 6.01875,18.24378 27.36859,27.68551 46.32226,34.29492 A 242.85714,242.85714 0 0 0 402.85742,291.0918 Z m 23.29688,37.56054 a 35.860417,22.728431 13.462613 0 1 12.99804,1.52149 35.860417,22.728431 13.462613 0 1 29.58399,30.45312 35.860417,22.728431 13.462613 0 1 -40.16797,13.75586 35.860417,22.728431 13.462613 0 1 -29.58203,-30.45312 35.860417,22.728431 13.462613 0 1 27.16797,-15.27735 z m -55.9336,346.97461 a 19.093901,17.073595 0 0 1 19.09375,17.07227 19.093901,17.073595 0 0 1 -2.03515,7.625 11.616754,12.626906 0 0 1 10.7207,12.57812 11.616754,12.626906 0 0 1 -11.61719,12.62696 11.616754,12.626906 0 0 1 -11.61523,-12.62696 11.616754,12.626906 0 0 1 0.52148,-3.74414 19.093901,17.073595 0 0 1 -5.06836,0.61524 19.093901,17.073595 0 0 1 -19.09375,-17.07422 19.093901,17.073595 0 0 1 19.09375,-17.07227 z"
       transform="scale(0.26458333)"
       id="path4518"
       inkscape:connector-curvature="0" />
    <path
       style="fill:#ffffff;stroke:#ffffff;stroke-width:4.02519703;stroke-miterlimit:4;stroke-dasharray:none;stroke-dashoffset:0;stroke-opacity:1"
       d="m 521.19727,463.29492 a 22.728431,15.152287 62.369493 0 0 -4.4375,1.17774 22.728431,15.152287 62.369493 0 0 -2.88477,27.16211 22.728431,15.152287 62.369493 0 0 23.96484,13.10937 22.728431,15.152287 62.369493 0 0 2.88477,-27.16211 22.728431,15.152287 62.369493 0 0 -19.52734,-14.28711 z m -117.13672,52.12305 a 15.152287,13.637059 0 0 0 -14.24414,9.03711 44.951792,27.274118 64.785839 0 0 -27.12891,-6.77539 44.951792,27.274118 64.785839 0 0 -5.52539,52.28906 44.951792,27.274118 64.785839 0 0 43.82422,29.04883 44.951792,27.274118 64.785839 0 0 5.52734,-52.28711 44.951792,27.274118 64.785839 0 0 -2.09375,-4.05078 15.152287,13.637059 0 0 0 14.79297,-13.625 15.152287,13.637059 0 0 0 -15.15234,-13.63672 z M 462.14453,523.5 a 18.687821,18.182744 0 0 0 -18.6875,18.18164 18.687821,18.182744 0 0 0 18.6875,18.18359 18.687821,18.182744 0 0 0 18.6875,-18.18359 A 18.687821,18.182744 0 0 0 462.14453,523.5 Z"
       transform="scale(0.26458333)"
       id="path4541"
       inkscape:connector-curvature="0" />
  </g>
</svg>
