<?xml version="1.0" standalone="no"?>
<!DOCTYPE svg PUBLIC "-//W3C//DTD SVG 20010904//EN"
 "http://www.w3.org/TR/2001/REC-SVG-20010904/DTD/svg10.dtd">
<svg version="1.0" xmlns="http://www.w3.org/2000/svg"
 width="980.000000pt" height="980.000000pt" viewBox="0 0 980.000000 980.000000"
 preserveAspectRatio="xMidYMid meet">
<metadata>
Created by potrace 1.11, written by Peter Selinger 2001-2013
</metadata>
<g transform="translate(0.000000,980.000000) scale(0.100000,-0.100000)"
fill="#000000" stroke="none">
<path d="M4678 9796 c-1 -2 -46 -6 -98 -10 -134 -9 -200 -15 -240 -22 -19 -3
-51 -7 -70 -10 -115 -14 -188 -27 -350 -60 -41 -9 -84 -17 -95 -20 -11 -2 -65
-16 -120 -30 -55 -14 -104 -27 -110 -28 -5 -1 -23 -7 -40 -13 -30 -12 -111
-36 -130 -39 -5 0 -17 -4 -25 -7 -69 -28 -217 -80 -227 -80 -7 0 -13 -4 -13
-9 0 -4 -6 -8 -14 -8 -14 0 -120 -43 -216 -88 -30 -14 -57 -26 -60 -27 -38
-14 -70 -31 -70 -37 0 -4 -6 -5 -14 -2 -8 3 -17 1 -20 -4 -3 -5 -41 -27 -83
-48 -43 -21 -79 -42 -81 -46 -2 -5 -12 -8 -23 -8 -10 0 -19 -4 -19 -10 0 -5
-4 -10 -10 -10 -19 0 -373 -219 -455 -283 -5 -4 -28 -21 -50 -37 -48 -35 -68
-50 -120 -91 -22 -17 -56 -43 -75 -57 -19 -15 -44 -36 -56 -48 -12 -11 -34
-31 -50 -43 -198 -156 -517 -494 -717 -761 -48 -63 -90 -119 -95 -125 -13 -17
-146 -219 -158 -240 -6 -11 -30 -51 -54 -89 -73 -119 -184 -331 -247 -471 -70
-156 -83 -186 -83 -191 0 -3 -6 -20 -14 -37 -16 -37 -28 -68 -32 -82 -1 -5 -8
-23 -15 -40 -7 -16 -13 -32 -13 -35 -1 -3 -16 -48 -33 -100 -35 -106 -82 -260
-87 -287 -2 -10 -10 -38 -17 -63 -6 -25 -13 -52 -15 -60 -3 -15 -19 -85 -29
-130 -3 -14 -8 -34 -9 -45 -2 -11 -6 -36 -10 -55 -4 -19 -9 -48 -11 -65 -2
-16 -4 -30 -5 -30 -3 0 -8 -34 -25 -155 -2 -14 -7 -53 -10 -87 -3 -34 -8 -71
-10 -81 -12 -65 -20 -261 -19 -497 0 -280 6 -405 29 -575 3 -25 8 -61 10 -80
8 -67 17 -123 28 -175 4 -19 18 -109 18 -120 1 -2 7 -28 14 -56 8 -29 12 -56
9 -61 -3 -4 -1 -8 3 -8 5 0 9 -8 10 -17 1 -24 12 -74 19 -93 4 -8 8 -24 9 -35
2 -11 12 -49 23 -85 27 -83 46 -152 47 -165 0 -5 2 -12 5 -15 3 -3 15 -36 28
-75 38 -116 83 -237 108 -292 13 -28 24 -54 24 -57 0 -6 60 -137 113 -246 89
-184 235 -436 346 -595 22 -33 47 -68 54 -79 28 -42 82 -111 91 -118 6 -4 8
-8 4 -8 -5 0 0 -8 10 -18 9 -10 28 -33 42 -51 14 -19 32 -42 40 -51 8 -10 31
-38 50 -61 19 -24 46 -56 60 -70 14 -15 45 -51 70 -79 60 -70 251 -261 335
-335 37 -33 79 -71 94 -85 14 -14 49 -43 76 -65 28 -21 52 -42 55 -45 3 -3 52
-41 110 -84 58 -43 113 -84 123 -92 9 -8 21 -14 26 -14 5 0 11 -3 13 -8 4 -10
188 -132 199 -132 5 0 9 -4 9 -9 0 -5 8 -11 18 -15 9 -3 31 -14 47 -23 112
-67 157 -93 165 -93 4 0 10 -3 12 -7 5 -12 188 -105 188 -96 0 4 4 3 8 -2 8
-13 113 -63 232 -112 47 -19 99 -42 117 -50 17 -8 37 -16 45 -17 7 -2 24 -7
38 -13 14 -5 61 -22 105 -38 44 -15 87 -30 95 -33 8 -3 18 -6 23 -7 4 -2 8 -3
10 -5 1 -1 9 -3 17 -5 8 -2 56 -15 105 -29 105 -31 307 -82 350 -89 17 -3 41
-8 55 -11 14 -3 36 -8 50 -10 14 -3 36 -7 50 -10 32 -6 94 -16 145 -23 22 -2
51 -7 65 -9 14 -2 48 -6 75 -9 28 -3 68 -7 90 -10 216 -28 753 -27 980 2 33 4
83 7 112 8 28 0 49 3 46 8 -2 4 8 7 24 8 15 0 37 2 48 5 21 4 97 14 128 17 9
1 17 4 17 7 0 3 12 5 28 5 15 -1 33 3 40 8 6 5 12 7 12 4 0 -3 17 -1 38 4 20
6 46 11 57 14 11 2 31 6 45 9 14 4 34 8 45 11 60 13 145 36 218 58 26 9 50 16
52 16 7 2 21 7 145 46 63 21 121 42 128 47 6 6 12 7 12 3 0 -4 6 -2 14 4 8 6
18 11 22 10 9 -2 16 0 136 51 147 62 176 76 353 165 207 105 495 276 600 357
6 5 62 47 125 94 63 48 144 111 180 141 36 30 85 71 109 91 63 53 379 368 431
430 25 30 55 64 67 77 51 57 202 251 200 258 -1 5 6 13 16 18 9 6 17 16 17 23
0 8 7 16 15 20 8 3 15 12 15 20 0 8 4 16 8 18 5 2 36 44 68 93 32 50 61 92 64
95 7 6 116 192 144 245 12 22 27 46 34 53 7 8 10 17 7 22 -3 5 0 10 5 12 6 2
12 10 14 18 5 25 29 70 38 70 4 0 8 7 8 15 0 8 13 40 29 72 44 86 90 189 122
273 16 41 34 84 38 95 22 48 70 189 72 210 0 6 5 15 9 21 5 5 16 35 24 65 8
30 28 101 45 159 16 57 28 107 25 111 -2 4 0 10 5 13 4 3 12 25 16 48 4 24 9
48 10 53 2 6 6 25 9 43 4 18 13 63 20 100 8 37 17 84 20 105 3 20 9 54 12 75
3 20 7 42 7 47 1 6 -9 9 -23 7 -14 -2 -34 -2 -45 -2 -11 1 -24 1 -30 1 -13 0
-79 -9 -125 -17 -19 -3 -46 -8 -60 -10 -47 -8 -147 -30 -155 -34 -3 -1 -9 -4
-15 -5 -5 -1 -12 -4 -15 -5 -3 -1 -8 -3 -12 -4 -31 -7 -126 -44 -168 -64 -27
-14 -52 -24 -54 -23 -2 2 -7 -1 -10 -6 -3 -4 -16 -14 -28 -20 -13 -7 -33 -19
-45 -25 -13 -7 -25 -15 -28 -18 -3 -3 -27 -21 -55 -40 -27 -19 -106 -80 -175
-135 -197 -160 -305 -227 -430 -270 -3 -1 -16 -6 -30 -12 -30 -13 -92 -28
-102 -25 -5 1 -8 -1 -8 -5 0 -5 -10 -8 -22 -9 -13 0 -48 -4 -78 -8 -93 -14
-111 -15 -240 -16 -127 0 -203 4 -301 16 -30 3 -70 7 -89 8 -19 0 -37 4 -40 8
-14 18 -29 -14 -50 -102 -12 -52 -24 -113 -26 -135 -3 -22 -7 -51 -10 -65 -5
-29 -13 -199 -19 -425 -2 -88 -7 -173 -10 -190 -4 -16 -8 -43 -10 -60 -2 -16
-4 -31 -5 -32 -2 -2 -3 -6 -5 -10 -15 -56 -20 -73 -34 -103 -8 -19 -15 -37
-16 -40 -4 -15 -33 -71 -60 -115 -151 -251 -437 -392 -785 -387 -47 0 -85 1
-85 2 0 1 -11 3 -25 4 -14 2 -42 6 -62 10 -21 4 -39 6 -40 6 -2 -1 -16 4 -33
10 -16 7 -40 14 -51 16 -12 2 -38 11 -58 19 -20 8 -39 16 -43 16 -19 1 -144
75 -208 122 -79 59 -245 222 -245 242 0 5 -6 13 -57 72 -12 14 -27 38 -35 52
-7 14 -16 28 -19 31 -4 3 -21 32 -40 65 -18 33 -36 62 -39 65 -9 7 -210 418
-210 429 0 5 -3 11 -7 13 -5 1 -15 17 -24 33 -13 25 -20 30 -49 27 -19 -1 -40
-7 -47 -14 -7 -6 -13 -8 -13 -5 0 4 -19 -1 -42 -9 -24 -9 -50 -17 -58 -19 -8
-2 -60 -15 -114 -29 -55 -14 -102 -24 -104 -21 -3 3 -10 1 -16 -4 -6 -5 -29
-12 -51 -15 -23 -4 -52 -9 -65 -12 -58 -12 -100 -19 -250 -39 -26 -4 -130 -15
-190 -20 -19 -2 -35 -4 -35 -5 0 0 -49 -4 -110 -7 -210 -11 -647 -5 -662 10
-3 4 -14 2 -24 -3 -9 -6 -19 -6 -21 -1 -2 5 -37 11 -78 14 -41 4 -84 8 -95 10
-11 3 -42 8 -70 11 -75 11 -140 23 -140 26 0 1 -12 3 -26 5 -14 2 -45 9 -70
15 -24 7 -51 13 -59 15 -84 16 -227 65 -330 113 -41 20 -77 36 -80 36 -14 3
-120 72 -120 78 0 5 -5 8 -11 8 -19 0 -119 111 -139 154 -33 70 -49 164 -45
256 2 47 6 92 8 100 16 72 79 211 113 251 8 8 14 20 14 25 0 5 13 23 28 41 15
18 35 42 45 55 50 64 75 93 102 122 48 53 188 206 217 240 16 17 34 38 41 46
8 8 24 29 36 46 l22 31 -53 54 c-75 78 -148 160 -167 189 -8 14 -22 32 -30 40
-42 43 -203 314 -193 324 3 3 0 6 -6 6 -7 0 -12 5 -12 10 0 6 -10 32 -21 58
-43 97 -49 110 -49 120 0 6 -5 23 -12 39 -14 35 -19 53 -44 148 -13 50 -33
165 -38 214 -3 29 -7 56 -10 59 -3 2 -1 13 4 23 6 10 7 20 2 23 -13 8 1 316
15 340 4 5 8 24 9 42 1 18 4 37 7 42 4 5 8 22 11 38 3 16 15 56 26 89 11 33
22 65 24 70 5 18 18 49 41 100 12 28 22 54 22 59 1 5 5 12 10 15 5 3 17 22 26
42 9 20 23 42 32 49 8 7 15 18 15 24 0 6 20 37 45 68 25 32 45 60 45 63 0 8
75 88 144 154 102 97 107 101 116 101 5 0 13 6 17 13 10 17 194 136 258 167
28 14 53 29 57 35 4 5 8 7 8 3 0 -4 35 9 77 29 42 19 84 37 92 38 9 2 18 4 21
6 3 1 10 3 15 4 6 1 24 7 40 14 29 12 39 15 86 26 11 2 29 7 39 10 21 7 49 13
100 21 46 8 65 12 65 14 0 2 36 7 120 15 93 10 392 9 480 -1 39 -4 82 -8 98
-8 15 -1 27 -4 27 -7 0 -3 6 -6 13 -6 27 0 94 -12 117 -21 14 -5 33 -8 42 -7
10 2 20 -1 24 -6 3 -5 14 -9 25 -9 20 0 135 -33 174 -50 11 -5 31 -12 45 -15
90 -24 467 -211 478 -237 2 -4 8 -8 13 -8 9 0 94 -56 117 -77 7 -7 17 -13 20
-13 4 0 18 -10 32 -22 14 -13 48 -41 75 -63 78 -61 335 -325 317 -325 -4 0 -2
-4 3 -8 12 -8 73 -85 93 -117 6 -11 26 -40 42 -65 16 -25 30 -51 30 -57 0 -7
4 -13 9 -13 7 0 84 -143 86 -160 0 -3 6 -15 13 -28 29 -52 103 -274 118 -357
2 -11 7 -35 10 -52 6 -30 9 -33 44 -33 28 0 40 5 44 18 2 9 14 50 26 91 12 41
23 81 25 90 2 9 16 54 30 101 15 47 31 101 37 120 6 19 13 40 16 45 4 6 7 15
9 20 4 20 45 130 56 150 6 11 10 26 9 33 -2 6 3 12 9 12 7 0 10 3 7 6 -3 3 12
42 34 87 22 45 39 82 37 82 -2 0 6 14 19 32 12 17 22 33 22 36 0 6 62 109 70
117 3 3 21 28 40 55 98 142 278 314 396 379 21 11 41 24 44 27 24 28 310 134
389 144 23 3 47 7 51 10 26 16 253 24 340 13 108 -15 288 -75 298 -100 2 -4 8
-8 14 -8 20 0 106 -67 179 -139 119 -119 198 -237 296 -441 54 -111 173 -415
173 -441 0 -10 71 -160 80 -169 3 -3 24 -30 48 -61 23 -31 68 -78 99 -105 31
-27 64 -56 72 -64 9 -8 29 -21 44 -29 15 -8 27 -18 27 -23 0 -4 6 -8 14 -8 8
0 16 -3 18 -7 2 -5 19 -16 38 -27 19 -10 64 -34 100 -53 35 -19 107 -52 160
-74 52 -22 104 -44 115 -49 17 -7 52 -19 75 -25 3 -1 18 -7 33 -13 16 -7 34
-12 42 -12 8 0 17 -4 20 -10 3 -5 13 -10 21 -10 11 0 13 8 8 33 -3 17 -7 43
-9 57 -6 41 -34 193 -41 220 -3 14 -7 34 -9 45 -3 17 -26 113 -40 168 -3 9 -7
27 -10 40 -5 24 -34 123 -43 147 -3 8 -6 20 -7 25 -26 113 -206 579 -255 660
-10 17 -19 35 -20 40 -2 14 -70 148 -81 159 -5 6 -9 16 -9 23 0 8 -5 19 -11
26 -5 7 -37 59 -70 117 -68 120 -62 109 -153 249 -38 58 -73 108 -77 109 -5 2
-9 10 -9 17 0 7 -3 15 -7 17 -5 2 -24 26 -42 53 -19 28 -38 52 -41 55 -3 3
-16 19 -28 37 -13 18 -31 42 -42 55 -11 13 -36 43 -56 68 -33 42 -98 116 -167
193 -123 137 -332 336 -472 452 -27 22 -57 48 -67 58 -10 9 -20 17 -23 17 -2
0 -40 29 -84 64 -44 36 -90 70 -103 77 -13 7 -25 15 -28 18 -3 4 -45 34 -95
66 -49 33 -91 63 -93 68 -2 4 -8 7 -13 7 -6 0 -22 8 -37 18 -89 61 -212 132
-228 132 -8 0 -14 3 -14 8 0 16 -339 179 -535 257 -66 26 -129 51 -140 55 -41
18 -337 113 -387 126 -10 2 -27 6 -38 9 -11 3 -29 7 -40 10 -11 3 -28 7 -37 9
-72 18 -204 48 -233 52 -43 6 -75 12 -75 14 0 2 -32 8 -80 15 -22 3 -51 7 -65
9 -66 11 -128 19 -155 21 -16 2 -55 6 -85 9 -30 4 -77 9 -105 12 -56 6 -631
14 -637 10z m882 -840 c293 -47 554 -215 635 -409 60 -146 -13 -300 -180 -379
-39 -18 -74 -33 -80 -34 -15 -3 -61 -13 -92 -20 -29 -7 -267 -8 -293 -1 -8 2
-33 7 -55 11 -41 8 -98 23 -125 33 -8 3 -23 8 -34 10 -28 5 -216 105 -216 114
0 5 -6 9 -12 9 -16 1 -93 72 -134 125 -39 49 -73 113 -81 151 -8 40 -7 120 2
141 5 10 9 20 9 23 13 50 100 134 178 170 106 50 187 65 323 63 66 -1 136 -4
155 -7z m-1165 -6951 c187 -64 273 -248 190 -407 -14 -27 -23 -53 -20 -58 4
-6 21 -10 40 -10 44 0 83 -17 121 -55 51 -50 65 -87 65 -167 -2 -179 -216
-267 -327 -135 -55 65 -68 139 -40 230 15 51 21 48 -62 29 -63 -15 -159 -7
-221 17 -219 87 -273 333 -107 484 93 84 239 113 361 72z"/>
<path d="M7249 6346 c-106 -27 -172 -105 -204 -241 -7 -26 -10 -90 -5 -97 1
-2 3 -23 5 -48 6 -61 25 -139 36 -146 5 -3 7 -10 4 -15 -4 -5 -1 -9 6 -9 7 0
9 -3 6 -6 -8 -8 45 -106 73 -136 11 -12 20 -26 20 -30 0 -14 121 -128 136
-128 3 0 18 -8 32 -18 75 -52 213 -63 287 -24 49 27 79 52 88 75 3 9 11 17 17
17 5 0 10 6 10 13 0 8 6 27 14 43 16 31 29 108 28 164 -1 100 -37 220 -97 321
-39 66 -150 189 -171 189 -7 0 -14 4 -16 8 -5 12 -77 52 -94 52 -8 0 -14 3
-14 8 0 4 -12 8 -28 9 -15 1 -41 4 -58 6 -16 2 -50 -1 -75 -7z"/>
<path d="M4846 5295 c-27 -8 -52 -19 -56 -25 -4 -7 -10 -10 -13 -8 -10 6 -85
-57 -102 -85 -15 -25 -19 -27 -33 -14 -37 31 -123 77 -193 102 -58 21 -93 27
-159 28 -133 1 -202 -26 -285 -107 -56 -56 -127 -187 -139 -256 -21 -123 -25
-224 -13 -330 7 -62 10 -74 34 -180 3 -14 6 -31 6 -37 0 -7 4 -13 9 -13 4 0 8
-13 8 -30 0 -16 5 -30 10 -30 6 0 10 -9 10 -20 0 -27 78 -192 131 -276 142
-226 332 -396 514 -459 68 -23 100 -28 170 -27 68 2 91 5 120 16 68 28 107 51
143 87 46 44 87 99 76 99 -4 0 -1 6 8 13 8 6 24 39 36 72 34 96 44 158 45 275
0 90 -9 179 -28 260 -3 14 -8 36 -11 50 -2 14 -11 42 -19 63 -8 20 -13 37 -11
37 3 0 -25 72 -70 177 -5 11 19 30 41 32 42 5 93 38 147 96 35 37 39 44 37 61
0 4 3 10 9 13 17 12 29 67 26 132 -4 131 -98 243 -239 287 -46 14 -154 12
-209 -3z"/>
<path d="M6015 5136 c-27 -7 -70 -23 -94 -35 -52 -27 -161 -132 -161 -155 0
-9 -4 -16 -9 -16 -11 0 -32 -56 -24 -64 4 -3 2 -6 -4 -6 -11 0 -11 2 -16 -95
-3 -63 15 -170 32 -185 3 -3 14 -21 25 -42 22 -44 86 -106 146 -141 124 -72
313 -70 422 5 14 10 29 18 32 18 17 0 102 105 128 159 69 145 37 333 -78 448
-38 38 -112 83 -164 102 -52 18 -178 22 -235 7z"/>
</g>
</svg>
